<?xml version="1.0" encoding="utf-8"?>
<!-- Generator: Adobe Illustrator 21.0.0, SVG Export Plug-In . SVG Version: 6.00 Build 0)  -->
<svg version="1.1" xmlns="http://www.w3.org/2000/svg" xmlns:xlink="http://www.w3.org/1999/xlink" x="0px" y="0px"
	 viewBox="0 0 3686.6 800" enable-background="new 0 0 3686.6 800" xml:space="preserve">
<g id="Layer_1">
	<g>
		<path fill="#41B883" d="M734.2,533v13.7H559.1V289h173.3v13.7H575v103.2h148v13.7H575V533H734.2z"/>
		<path fill="#41B883" d="M775.7,289v257.7H762V289H775.7z"/>
		<path fill="#41B883" d="M824.8,455.8c-0.7,43.7,22.4,83.4,68.2,83.4c35,0,59.9-20.9,66.4-55.2h13.7c-7.2,43.3-36.1,67.1-80.1,67.1
			c-54.1,0-82.7-42.6-81.9-93.9c-0.7-50.9,26-100.4,81.9-100.4c58.1,0,84.1,45.8,81.6,98.9H824.8z M960.9,443.8
			c-0.7-39-25.3-75.1-67.9-75.1c-41.2,0-65.3,38.3-68.2,75.1H960.9z"/>
		<path fill="#41B883" d="M1146.4,418.6c-2.5-32.9-29.2-49.8-62.8-49.8c-46.6,0-71.5,41.2-71.5,83.4c0,50.2,23.5,87,71.5,87
			c34.7,0,59.9-23.8,64.6-57.8h13.7c-6.1,44.4-38.3,69.7-78.3,69.7c-60.3,0-85.2-47.3-85.2-98.9s30.3-95.3,85.2-95.3
			c40.1,0,72.6,19.5,76.5,61.7H1146.4z"/>
		<path fill="#41B883" d="M1262.3,373.1h-40.4v129.6c0,30,14.1,32.9,40.1,32.1v11.9c-28.2,1.8-55.2-2.2-53.8-44V373.1h-34.3v-11.9
			h34.3v-57.8h13.7v57.8h40.4V373.1z"/>
		<path fill="#41B883" d="M1301.3,402.3h1.1c7.2-24.2,37.5-43.7,71.1-42.2v13.7c-14.4-1.8-34.7,1.8-51.3,18
			c-13.7,14.1-19.5,25.6-20.9,53.4v101.4h-13.7V361.2h13.7V402.3z"/>
		<path fill="#41B883" d="M1464.5,356.8c54.5,0,85.2,44.4,85.2,97.1c0,52.7-30.7,97.1-85.2,97.1s-85.2-44.4-85.2-97.1
			C1379.3,401.2,1410,356.8,1464.5,356.8z M1464.5,539.1c46.6,0,71.5-40.8,71.5-85.2c0-44.4-24.9-85.2-71.5-85.2
			c-46.6,0-71.5,40.8-71.5,85.2C1393,498.4,1417.9,539.1,1464.5,539.1z"/>
		<path fill="#41B883" d="M1581.8,361.2h13.7v39.7h0.7c9.4-27.8,37.5-44,66.4-44c65.3,0,66.1,52.3,66.1,75.1v114.8H1715V429.4
			c0-19.1-2.2-60.6-52.7-60.6c-41.5,0-66.8,32.1-66.8,77.6v100.4h-13.7V361.2z"/>
		<path fill="#35495E" d="M1789.7,289H1994v20.9h-89.9v236.8h-24.5V309.9h-89.9V289z"/>
		<path fill="#35495E" d="M1955.1,360.5h24.2l47.7,159.6h0.7l45.5-159.6h25.6l45.5,159.6h0.7l47.7-159.6h24.2l-59.9,186.3H2132
			l-45.8-156.7h-0.7l-45.5,156.7H2015L1955.1,360.5z"/>
		<path fill="#35495E" d="M2241.7,289h22.7v36.5h-22.7V289z M2241.7,360.5h22.7v186.3h-22.7V360.5z"/>
		<path fill="#35495E" d="M2344.2,360.5h37.9v19.1h-37.9v125.6c0,14.8,2.2,23.5,18.4,24.5c6.5,0,13-0.4,19.5-1.1v19.5
			c-6.9,0-13.4,0.7-20.2,0.7c-30.3,0-40.8-10.1-40.4-41.9V379.6H2289v-19.1h32.5v-56h22.7V360.5z"/>
		<path fill="#35495E" d="M2451.1,360.5h37.9v19.1h-37.9v125.6c0,14.8,2.2,23.5,18.4,24.5c6.5,0,13-0.4,19.5-1.1v19.5
			c-6.9,0-13.4,0.7-20.2,0.7c-30.3,0-40.8-10.1-40.4-41.9V379.6h-32.5v-19.1h32.5v-56h22.7V360.5z"/>
		<path fill="#35495E" d="M2535.2,459.7c0.4,33.2,17.7,73.3,61.4,73.3c33.2,0,51.3-19.5,58.5-47.7h22.7
			c-9.7,42.2-34.3,66.8-81.2,66.8c-59.2,0-84.1-45.5-84.1-98.6c0-49.1,24.9-98.6,84.1-98.6c59.9,0,83.8,52.3,81.9,104.7H2535.2z
			 M2655.8,440.6c-1.1-34.3-22.4-66.4-59.2-66.4c-37.2,0-57.8,32.5-61.4,66.4H2655.8z"/>
		<path fill="#35495E" d="M2709.2,360.5h20.9v43.7h0.7c11.6-30,36.8-47.7,70.4-46.2v22.7c-41.2-2.2-69.3,28.2-69.3,66.8v99.3h-22.7
			V360.5z"/>
		<path fill="#41B883" d="M2846,302.7V289h197.5v13.7h-91v244h-15.9v-244H2846z"/>
		<path fill="#41B883" d="M3101.9,356.8c54.5,0,85.2,44.4,85.2,97.1c0,52.7-30.7,97.1-85.2,97.1s-85.2-44.4-85.2-97.1
			C3016.8,401.2,3047.4,356.8,3101.9,356.8z M3101.9,539.1c46.6,0,71.5-40.8,71.5-85.2c0-44.4-24.9-85.2-71.5-85.2
			s-71.5,40.8-71.5,85.2C3030.5,498.4,3055.4,539.1,3101.9,539.1z"/>
		<path fill="#41B883" d="M3295.8,356.8c54.5,0,85.2,44.4,85.2,97.1c0,52.7-30.7,97.1-85.2,97.1s-85.2-44.4-85.2-97.1
			C3210.6,401.2,3241.3,356.8,3295.8,356.8z M3295.8,539.1c46.6,0,71.5-40.8,71.5-85.2c0-44.4-24.9-85.2-71.5-85.2
			s-71.5,40.8-71.5,85.2C3224.3,498.4,3249.2,539.1,3295.8,539.1z"/>
		<path fill="#41B883" d="M3430.1,289v257.7h-13.7V289H3430.1z"/>
		<path fill="#41B883" d="M3480.3,485c2.2,34.3,27.8,54.1,61.4,54.1c24.2,0,58.8-7.2,58.8-39.3c0-31.4-31.8-36.1-63.5-42.6
			c-32.1-6.5-63.9-14.8-63.9-52.7c0-36.8,35.7-47.7,67.1-47.7c39.3,0,68.6,17,68.6,59.2h-13.7c-0.4-33.6-23.8-47.3-54.9-47.3
			c-25.3,0-53.4,9.4-53.4,35.7c0,29.6,31.8,34.3,61.7,40.8c36.8,6.9,65.7,15.5,65.7,54.5c0,40.1-40.1,51.3-72.6,51.3
			c-42.2,0-74-22.7-75.1-66.1H3480.3z"/>
	</g>
</g>
<g id="Layer_2">
	<g>
		<g>
			<polygon fill="#41B883" points="163.2,254 92.6,254 92.6,526.2 163.2,526.2 			"/>
			<polygon fill="#35495E" points="256.5,312.2 185.9,312.2 185.9,526.2 256.5,526.2 			"/>
			<rect x="275.7" y="397.9" fill="#41B883" width="70.6" height="128.3"/>
			<path fill="#35495E" d="M119.3,177.2l50.4,50.4h67.6l111.9,111.9c-2.5,4.4-3.9,9.5-3.9,14.9c0,16.9,13.7,30.6,30.6,30.6
				c16.9,0,30.7-13.7,30.7-30.6c0-16.9-13.7-30.7-30.7-30.7c-4,0-7.8,0.8-11.4,2.2L245.8,207.2h-67.6l-44.4-44.4l37.4-37.4
				L46.6,91.9L80,216.4L119.3,177.2z"/>
		</g>
		<polygon fill="#35495E" points="280.5,566.2 280,566.2 179.8,566.2 176.2,566.2 75.6,566.2 75.6,616.9 176.2,616.9 179.8,616.9 
			280,616.9 280.5,616.9 384.2,616.9 384.2,566.2 		"/>
	</g>
</g>
</svg>
